<?xml version="1.0" encoding="UTF-8"?>
<svg id="Layer_1" data-name="Layer 1" xmlns="http://www.w3.org/2000/svg" viewBox="0 0 625.07 656.3">
  <defs>
    <style>
      .cls-1 {
        fill: #4457a6;
        stroke-width: 0px;
      }
    </style>
  </defs>
  <path class="cls-1" d="M.24,13.68v11.82c0,126.95,0,253.9,0,380.85,0,16.05,5.29,19.13,19.84,11.52,1.7-.89,3.33-1.92,4.94-2.97,34.22-22.38,68.37-44.88,102.67-67.16,90-58.46,180.05-116.86,270.12-175.22,22.48-14.56,23.36-14.22,37.86,8.92,5.53,8.83,10.94,17.8,17.24,26.07,5.24,6.87,11.78,6.23,17-.72,1.97-2.62,3.57-5.53,5.23-8.38,19.58-33.68,39.14-67.37,58.69-101.07,15-25.87,30.16-51.65,44.85-77.7,6.16-10.93,2.02-17.54-10.36-17.66C496.04,1.29,423.79.64,351.53.06c-5.67-.05-11.99-.85-15.36,5.4-3.36,6.21-.37,11.56,2.92,16.83,6.26,10,12.46,20.04,18.5,30.18,7.87,13.22,7.06,17.13-5.8,25.52-73.11,47.69-146.28,95.29-219.45,142.89-2.63,1.71-5.5,3.07-9.57,5.32,0-4.88,0-8.12,0-11.35-.02-64.02-.15-128.05.09-192.07.03-7.28-2.08-9.41-9.34-9.25-21.42.46-42.86.16-64.3.16-15.9,0-31.79,0-48.99,0ZM.24,595.06c4.79-2.9,7.87-4.67,10.86-6.58,85.73-54.88,171.45-109.79,257.2-164.64,4.38-2.8,8.89-5.44,13.54-7.76,5.33-2.65,10.14-1.43,14.03,3.08,1.97,2.29,3.87,4.64,5.7,7.05,56.14,73.88,112.34,147.71,168.27,221.75,4.64,6.14,9.46,8.41,17.12,8.34,42.85-.37,85.7-.17,128.55-.2,2.83,0,5.66-.24,9.57-.41-2.27-3.28-3.56-5.33-5.04-7.25-93.93-122.4-187.88-244.78-281.8-367.19-13.63-17.76-14.73-17.99-33.76-5.58-98.15,63.99-196.25,128.08-294.61,191.75C2.44,472.22-.17,476.97,0,485.66c.59,29.65.23,59.33.23,89v20.41Z"/>
</svg>